<svg width="1710" height="377" viewBox="0 0 1710 377" fill="none" xmlns="http://www.w3.org/2000/svg">
<rect y="37" width="1671" height="300" rx="65" fill="#FB923C"/>
<path d="M1443.11 191.746C1448.05 184.143 1454.79 175.425 1463.88 166.888C1485.07 146.982 1508.05 138.4 1521.93 134.525C1528.04 132.703 1534.93 130.214 1542.24 126.769C1553.01 121.693 1561.74 115.942 1568.5 110.766L1545.28 107.77C1545.28 107.77 1537.55 107.424 1541.05 94.5728L1544.58 69.0368C1544.58 69.0368 1543.14 64.7921 1538.96 66.9879C1538.96 66.9879 1524.47 73.6045 1520.75 67.6067C1520.75 67.6067 1518.33 60.8041 1537.39 57.2788C1537.39 57.2788 1526.4 41.9456 1523.22 34.4298C1522.97 31.9143 1523.31 30.3876 1524.22 29.8491C1526.95 28.249 1534.8 35.3762 1547.78 51.2316C1547.28 48.0654 1547.11 45.3774 1547.05 43.3727C1546.89 37.6755 1547.56 33.4975 1548.38 30.292C1549.18 27.1722 1549.57 25.6068 1550.36 25.4744C1551.72 25.2478 1554.13 28.4689 1558.78 42.8222C1558.78 42.8222 1564.76 33.9692 1567.61 32.1968C1570.47 30.4244 1572.51 39.4455 1567.27 51.4007L1571.19 51.342C1574.92 49.3723 1576.97 48.6305 1577.32 49.1169C1577.92 49.9349 1573.72 54.2268 1564.74 61.9932L1563.51 89.3355L1588.48 93.2278L1596.19 88.4423C1596.19 88.4423 1611.67 17.1232 1692.07 0.063479C1701.89 -0.556797 1705.92 3.54826 1706.83 4.55969C1711.85 10.1181 1709.9 19.0861 1707.82 28.6704C1706.47 34.8997 1704.78 38.9877 1701.75 46.272C1698.64 53.778 1694.96 60.6674 1687.59 74.4463C1686.11 77.2059 1684.54 80.0477 1682.25 83.6932C1680.01 87.254 1677.28 91.15 1673.95 95.1755C1670.06 99.8728 1666.19 103.763 1662.65 106.933C1659.89 109.267 1656.65 111.742 1652.9 114.171C1649.72 116.231 1646.67 117.937 1643.84 119.353C1637.12 125.516 1630.4 131.68 1623.68 137.843L1621.75 162.779L1637.67 163.578C1639.52 161.772 1641.36 159.967 1643.21 158.162C1644.12 156.543 1645.03 154.925 1645.93 153.307C1646.24 152.24 1646.73 150.948 1647.54 149.593C1649.32 146.594 1651.72 144.889 1653.15 144.04C1654.15 143.678 1656.89 142.84 1660.18 143.75C1662.67 144.441 1664.31 145.813 1665.09 146.562C1665.09 146.562 1653.88 152.726 1652.65 159.029C1652.65 159.029 1651.16 167.469 1670.8 154.491C1676.12 152.742 1679 152.276 1679.43 153.093C1680.2 154.575 1672.93 160.276 1657.6 170.197C1657.16 170.482 1656.93 170.783 1656.9 171.1C1656.78 172.732 1662.2 174.784 1673.16 177.257C1681.02 180.209 1684.82 182.24 1684.57 183.35C1684.17 185.132 1673.31 184.543 1652.01 181.581C1652.03 183.769 1652.14 186.078 1652.34 188.495C1652.78 193.615 1653.61 198.242 1654.58 202.305C1652.53 200.75 1649.36 197.946 1646.77 193.537C1643.68 188.286 1642.93 183.334 1642.71 180.625C1639.58 181.605 1635.83 182.456 1631.55 182.803C1619.37 183.791 1609.61 180.147 1604.24 177.598C1603.8 176.964 1601.39 173.351 1602.4 168.669C1603.14 165.201 1605.33 163.133 1606.12 162.455C1606.12 162.455 1606.7 155.105 1602.13 157.941C1602.13 157.941 1561.68 205.593 1524.92 222.863C1519.83 224.73 1514.06 226.489 1507.67 227.886C1493.94 230.884 1481.71 231.261 1472.06 230.747C1467.42 231.777 1462.79 232.808 1458.15 233.838C1462.4 239.266 1467.37 246.683 1471.64 256.128C1476.56 267.022 1478.87 276.933 1480.01 284.361C1476.34 289.683 1472.25 292.219 1469.64 293.467C1458.08 298.996 1442.5 295.046 1430.13 283.667C1429.31 285.707 1428.49 287.795 1427.69 289.931C1426.71 292.525 1425.79 295.077 1424.92 297.582C1423.9 300.643 1422.59 304.031 1420.86 307.617C1419.47 310.511 1418.02 313.108 1416.6 315.407C1416.6 315.407 1410.72 315.495 1416.4 298.517C1416.46 298.118 1416.41 297.796 1416.24 297.551C1415 295.729 1407.46 298.203 1393.62 304.972C1391.76 304.065 1390.75 303.05 1390.61 301.928C1390.23 298.904 1396.12 295.098 1408.27 290.51C1408.27 290.51 1412.78 283.755 1375.24 279.359C1375.24 279.359 1365.14 271.381 1405.24 277.353L1412.96 272.567L1394.74 264.884C1394.74 264.884 1378.37 246.161 1418.11 266.206C1418.11 266.206 1427.22 258.574 1441.58 267.064C1441.58 267.064 1426.57 249.878 1421.92 243.663C1411.23 246.02 1399.33 249.377 1386.68 254.209C1362.44 263.467 1343.18 275.183 1328.86 285.589C1315.45 297.213 1309.57 314.932 1313.92 331.119C1317.37 343.921 1328.17 356.885 1344.58 361.283C1357.94 364.863 1372.15 359.637 1379.92 348.323C1387.87 336.747 1387.44 321.191 1378.81 309.977C1378.81 309.977 1358.6 288.89 1348.19 290.603C1348.19 290.603 1356.81 280.903 1384.39 301.764C1386.55 304.141 1396.81 315.965 1395.98 333.51C1394.96 355.255 1377.79 367.124 1375.9 368.388C1373.42 369.889 1351.42 382.712 1326.61 372.778C1308.03 365.337 1294.93 347.953 1292.42 327.588C1291.53 319.293 1292.16 312.184 1293.28 306.43C1300.87 267.624 1339.54 248.241 1346.99 244.671C1366.2 233.141 1385.42 221.61 1404.64 210.08L1414.04 167.852C1414.04 167.852 1393.26 181.539 1389.8 181.706C1390.03 183.581 1390.33 188.26 1387.57 192.78C1384.07 198.533 1377.05 201.692 1369.54 201.006C1370.72 200.551 1377.15 197.941 1379.51 191.258C1380.4 188.733 1380.42 186.432 1380.28 184.846C1379.77 181.015 1377.39 178.509 1375.17 178.523C1374.79 178.526 1373.68 178.604 1372.42 179.833C1369.78 181.453 1366.96 183.082 1363.96 184.687C1359.9 186.861 1355.98 188.741 1352.25 190.369C1349.37 190.181 1346.48 189.994 1343.6 189.807C1344.84 187.459 1346.68 184.61 1349.43 181.835C1355.99 175.212 1363.65 173.062 1367.35 172.299C1367.35 172.299 1374.64 166.194 1353.4 165.128C1353.4 165.128 1332.44 158.754 1354.14 156.757L1367.61 158.689C1367.61 158.689 1374.37 160.029 1359.71 143.413C1359.82 140.277 1360.7 139.32 1361.38 138.976C1364.1 137.603 1369.03 143.315 1378.83 151.919C1383.7 156.19 1387.77 159.417 1390.19 161.291C1390.19 161.291 1422.97 136.988 1428.46 137.54C1428.46 137.54 1438.33 138.142 1440.65 169.932C1440.65 169.932 1437.92 187.845 1443.11 191.746Z" fill="white"/>
</svg>
